<svg xmlns="http://www.w3.org/2000/svg" viewBox="0 0 512 512">
  <defs>
    <linearGradient id="bg" x1="0" y1="0" x2="1" y2="1">
      <stop offset="0" stop-color="#241a0e"/>
      <stop offset="1" stop-color="#120d07"/>
    </linearGradient>
    <linearGradient id="amber" x1="0" y1="0" x2="0" y2="1">
      <stop offset="0" stop-color="#f0c069"/>
      <stop offset="1" stop-color="#b9741f"/>
    </linearGradient>
    <linearGradient id="liq" x1="0" y1="0" x2="0" y2="1">
      <stop offset="0" stop-color="#e8a84c"/>
      <stop offset="1" stop-color="#a35f14"/>
    </linearGradient>
  </defs>
  <rect width="512" height="512" fill="url(#bg)"/>
  <circle cx="430" cy="70" r="180" fill="#e8a84c" opacity="0.07"/>
  <g fill="none" stroke="url(#amber)" stroke-width="14" stroke-linejoin="round" stroke-linecap="round">
    <path d="M176 96 h160 c0 108 -20 164 -80 192 c-60 -28 -80 -84 -80 -192 Z"/>
    <path d="M256 290 v98 M196 396 h120"/>
  </g>
  <path d="M190 190 c14 26 36 46 66 60 c30 -14 52 -34 66 -60 c-6 46 -24 76 -66 96 c-42 -20 -60 -50 -66 -96 Z" fill="url(#liq)"/>
</svg>
